<svg id="Layer_1" data-name="Layer 1" xmlns="http://www.w3.org/2000/svg" viewBox="0 0 300 300"><defs><style>.cls-1{fill:#fff;}</style></defs><path class="cls-1" d="M203.39,143a62.61,62.61,0,0,0,47.93-60.78,14.74,14.74,0,0,0-14.73-14.72h-19.9V48a5.45,5.45,0,0,0-5.45-5.45H88.76A5.45,5.45,0,0,0,83.31,48V67.49H63.41A14.74,14.74,0,0,0,48.68,82.21,62.61,62.61,0,0,0,96.61,143a66.72,66.72,0,0,0,38.94,25.14v20.21H107.1a8.1,8.1,0,0,0-8.1,8.1v13.95H91.41a8.1,8.1,0,0,0-8.1,8.1V249.4a8.1,8.1,0,0,0,8.1,8.1H208.59a8.1,8.1,0,0,0,8.1-8.1V218.49a8.1,8.1,0,0,0-8.1-8.1H201V196.44a8.1,8.1,0,0,0-8.1-8.1H164.45V168.13A66.72,66.72,0,0,0,203.39,143Zm13.3-40V81.49h19.9a.73.73,0,0,1,.73.72,48.51,48.51,0,0,1-24,41.86A66.61,66.61,0,0,0,216.69,103Zm-154-20.81a.73.73,0,0,1,.73-.72h19.9V103a66.61,66.61,0,0,0,3.41,21A48.51,48.51,0,0,1,62.68,82.21ZM150,125.64l-17,7.21a3.27,3.27,0,0,1-4.53-3.29l1.6-18.42-12.12-14a3.26,3.26,0,0,1,1.73-5.32l18-4.17,9.53-15.84a3.27,3.27,0,0,1,5.6,0l9.53,15.84,18,4.17a3.26,3.26,0,0,1,1.73,5.32l-12.12,14,1.6,18.42a3.27,3.27,0,0,1-4.53,3.29Z"/></svg>