<svg id="Layer_1" data-name="Layer 1" xmlns="http://www.w3.org/2000/svg" viewBox="0 0 300 300"><defs><style>.cls-1{fill:#eb97a5;}</style></defs><path class="cls-1" d="M214.36,141.55a75.48,75.48,0,0,0,57.77-73.27,17.77,17.77,0,0,0-17.75-17.75h-24V27a6.57,6.57,0,0,0-6.58-6.57H76.18A6.57,6.57,0,0,0,69.6,27V50.53h-24A17.77,17.77,0,0,0,27.87,68.28a75.48,75.48,0,0,0,57.77,73.27,80.38,80.38,0,0,0,46.94,30.3v24.37H98.29A9.76,9.76,0,0,0,88.52,206V222.8H79.37a9.76,9.76,0,0,0-9.77,9.77v37.25a9.76,9.76,0,0,0,9.77,9.77H220.63a9.76,9.76,0,0,0,9.77-9.77V232.57a9.76,9.76,0,0,0-9.77-9.77h-9.15V206a9.76,9.76,0,0,0-9.77-9.76H167.42V171.85A80.38,80.38,0,0,0,214.36,141.55Zm16-48.18v-26h24a.87.87,0,0,1,.88.87,58.51,58.51,0,0,1-29,50.46A80.33,80.33,0,0,0,230.4,93.37ZM44.74,68.28a.87.87,0,0,1,.88-.87h24v26a80.33,80.33,0,0,0,4.11,25.37A58.5,58.5,0,0,1,44.74,68.28ZM150,120.63l-20.52,8.69a3.94,3.94,0,0,1-5.46-4l1.93-22.2L111.34,86.32a3.93,3.93,0,0,1,2.08-6.41l21.72-5,11.49-19.09a3.93,3.93,0,0,1,6.74,0l11.49,19.09,21.72,5a3.93,3.93,0,0,1,2.08,6.41l-14.61,16.84,1.93,22.2a3.94,3.94,0,0,1-5.46,4Z"/></svg>