<svg id="Layer_1" data-name="Layer 1" xmlns="http://www.w3.org/2000/svg" viewBox="0 0 300 300"><defs><style>.cls-1{fill:#eb97a5;}</style></defs><path class="cls-1" d="M264.81,186l-25.29-18.86a5.71,5.71,0,0,1-2.25-5.34,85.74,85.74,0,0,0,0-23.66,5.71,5.71,0,0,1,2.25-5.34L264.81,114a5.72,5.72,0,0,0,1.54-7.45L256.09,88.75,245.83,71a5.72,5.72,0,0,0-7.22-2.39l-29,12.46a5.69,5.69,0,0,1-5.74-.72,87.77,87.77,0,0,0-20.52-11.87,5.71,5.71,0,0,1-3.48-4.61L176.2,32.56a5.72,5.72,0,0,0-5.69-5.06h-41a5.72,5.72,0,0,0-5.69,5.06l-3.69,31.29a5.71,5.71,0,0,1-3.48,4.61A87.77,87.77,0,0,0,96.11,80.33a5.69,5.69,0,0,1-5.74.72l-29-12.46A5.72,5.72,0,0,0,54.17,71L43.91,88.75,33.65,106.52A5.72,5.72,0,0,0,35.19,114l25.29,18.86a5.71,5.71,0,0,1,2.25,5.34,85.74,85.74,0,0,0,0,23.66,5.71,5.71,0,0,1-2.25,5.34L35.19,186a5.72,5.72,0,0,0-1.54,7.45l10.26,17.77L54.17,229a5.72,5.72,0,0,0,7.22,2.39l29-12.46a5.69,5.69,0,0,1,5.74.72,87.77,87.77,0,0,0,20.52,11.87,5.71,5.71,0,0,1,3.48,4.61l3.69,31.29a5.72,5.72,0,0,0,5.69,5.06h41a5.72,5.72,0,0,0,5.69-5.06l3.69-31.29a5.71,5.71,0,0,1,3.48-4.61,87.77,87.77,0,0,0,20.52-11.87,5.69,5.69,0,0,1,5.74-.72l29,12.46a5.72,5.72,0,0,0,7.22-2.39l10.26-17.77,10.26-17.77A5.72,5.72,0,0,0,264.81,186ZM150,197.58A47.58,47.58,0,1,1,197.58,150,47.58,47.58,0,0,1,150,197.58Z"/></svg>