<svg id="Layer_1" data-name="Layer 1" xmlns="http://www.w3.org/2000/svg" viewBox="0 0 300 300"><defs><style>.cls-1{fill:#fff;}</style></defs><path class="cls-1" d="M246.22,180.2,225,164.39a4.78,4.78,0,0,1-1.89-4.47,72.7,72.7,0,0,0,0-19.84,4.78,4.78,0,0,1,1.89-4.47l21.19-15.81a4.79,4.79,0,0,0,1.29-6.24l-8.6-14.89-8.59-14.89a4.81,4.81,0,0,0-6.06-2L200,92.22a4.79,4.79,0,0,1-4.82-.61,73.83,73.83,0,0,0-17.19-10,4.78,4.78,0,0,1-2.92-3.86L172,51.57a4.8,4.8,0,0,0-4.77-4.24H132.81A4.8,4.8,0,0,0,128,51.57L125,77.8A4.78,4.78,0,0,1,122,81.66a73.83,73.83,0,0,0-17.19,10,4.79,4.79,0,0,1-4.82.61L75.74,81.77a4.81,4.81,0,0,0-6.06,2L61.09,98.67l-8.6,14.89a4.79,4.79,0,0,0,1.29,6.24L75,135.61a4.78,4.78,0,0,1,1.89,4.47,72.7,72.7,0,0,0,0,19.84A4.78,4.78,0,0,1,75,164.39L53.78,180.2a4.79,4.79,0,0,0-1.29,6.24l8.6,14.89,8.59,14.89a4.81,4.81,0,0,0,6.06,2L100,207.78a4.79,4.79,0,0,1,4.82.61,73.83,73.83,0,0,0,17.19,10A4.78,4.78,0,0,1,125,222.2L128,248.43a4.8,4.8,0,0,0,4.77,4.24h34.38a4.8,4.8,0,0,0,4.77-4.24l3.09-26.23a4.78,4.78,0,0,1,2.92-3.86,73.83,73.83,0,0,0,17.19-10,4.79,4.79,0,0,1,4.82-.61l24.28,10.45a4.81,4.81,0,0,0,6.06-2l8.59-14.89,8.6-14.89A4.79,4.79,0,0,0,246.22,180.2ZM150,197.34A47.34,47.34,0,1,1,197.34,150,47.33,47.33,0,0,1,150,197.34Z"/></svg>